<svg width="25" height="35" viewBox="0 0 25 35" fill="none" xmlns="http://www.w3.org/2000/svg">
<path d="M24.4314 33.9062H22.7269V21.0964C23.2329 20.8837 23.6636 20.5338 23.9663 20.0892C24.2689 19.6449 24.4306 19.1253 24.4315 18.5938V16.4064C24.4264 16.2933 24.3898 16.1836 24.3256 16.0886L21.4846 12.2606C21.3781 12.1165 21.206 12.0314 21.0224 12.0314H19.8862V10.9375H22.1589C22.3094 10.9375 22.454 10.8801 22.5605 10.7776C22.6673 10.6748 22.727 10.536 22.727 10.3908V0.546777C22.727 0.401859 22.6673 0.262706 22.5605 0.160223C22.454 0.0577409 22.3095 0 22.1589 0H2.84091C2.52718 0 2.27284 0.244807 2.27284 0.54677V10.3907C2.27284 10.536 2.33253 10.6748 2.43901 10.7776C2.54578 10.8801 2.69005 10.9375 2.84092 10.9375H5.11356V12.0314H3.97739C3.79384 12.0314 3.62137 12.1168 3.5149 12.2606L0.673906 16.0886C0.60972 16.1836 0.573427 16.2933 0.568329 16.4064V18.5938C0.569229 19.1253 0.730896 19.645 1.03353 20.0892C1.33616 20.5338 1.76687 20.8837 2.27289 21.0964V33.9062H0.568376C0.254346 33.9062 0 34.151 0 34.4529C0 34.7552 0.254346 35 0.568376 35H24.4319C24.7457 35 25 34.7552 25 34.4529C25 34.151 24.7457 33.9062 24.4319 33.9062L24.4314 33.9062ZM23.2953 18.5941C23.2953 19.1801 22.9701 19.7217 22.4428 20.015C21.9155 20.308 21.2656 20.308 20.7383 20.015C20.211 19.7217 19.8861 19.1801 19.8861 18.5941V16.9535H23.2952L23.2953 18.5941ZM16.4771 10.9376V12.0315H8.52234V10.9376H16.4771ZM13.2075 13.125L14.0191 15.8595H10.9802L11.7918 13.125H13.2075ZM15.2018 15.8595L14.3902 13.125L16.7156 13.1253L18.3389 15.8598L15.2018 15.8595ZM8.28377 13.1253H10.6101L9.79848 15.8598L6.66088 15.8595L8.28377 13.1253ZM6.24993 16.9533H9.65897V18.5939C9.65897 19.18 9.33414 19.7215 8.80652 20.0149C8.27923 20.3079 7.62958 20.3079 7.102 20.0149C6.57471 19.7216 6.24986 19.18 6.24986 18.5939L6.24993 16.9533ZM10.7954 16.9533H14.2045V18.5939H14.2042C14.2042 19.18 13.8793 19.7215 13.352 20.0149C12.8247 20.3079 12.1748 20.3079 11.6475 20.0149C11.1202 19.7216 10.7951 19.18 10.7951 18.5939L10.7954 16.9533ZM15.3409 16.9533H18.75V18.5939H18.7497C18.7497 19.18 18.4249 19.7215 17.8972 20.0149C17.3699 20.3079 16.7203 20.3079 16.1927 20.0149C15.6654 19.7216 15.3406 19.18 15.3406 18.5939L15.3409 16.9533ZM22.7592 15.8595H19.6474L18.0241 13.125H20.7298L22.7592 15.8595ZM18.7497 12.0315H17.6132V10.9376H18.7497V12.0315ZM3.4091 1.09447H21.5907V9.84394H3.4091V1.09447ZM6.25009 10.9384H7.38656V12.0323L6.25009 12.032V10.9384ZM4.26992 13.1259H6.97561L5.35233 15.86H2.24053L4.26992 13.1259ZM1.70458 18.5944V16.9538H5.11361V18.5944C5.11361 19.1805 4.78878 19.7221 4.26147 20.0154C3.73388 20.3084 3.08423 20.3084 2.55695 20.0154C2.02937 19.7221 1.7045 19.1805 1.7045 18.5944H1.70458ZM5.68173 33.9066V24.6102H10.2272V33.9066H5.68173ZM11.3634 33.9066L11.3637 24.0626C11.3637 23.9177 11.3037 23.7785 11.1972 23.676C11.0908 23.5735 10.9462 23.5158 10.7953 23.5158H5.11365C4.79992 23.5158 4.54558 23.7606 4.54558 24.0626V33.9065H3.40911V21.3289C4.30264 21.3242 5.14303 20.9195 5.68174 20.2333C6.21773 20.923 7.05993 21.3289 7.95469 21.3289C8.84906 21.3289 9.6913 20.923 10.2273 20.2333C10.7633 20.923 11.6055 21.3289 12.5 21.3289C13.3946 21.3289 14.2369 20.923 14.7729 20.2333C15.3086 20.923 16.1508 21.3289 17.0455 21.3289C17.9399 21.3289 18.7822 20.923 19.3182 20.2333C19.8575 20.9189 20.6976 21.324 21.5911 21.3289V33.9065L11.3634 33.9066ZM19.8864 23.5164H13.0682C12.7542 23.5164 12.4999 23.7612 12.4999 24.0632V28.985C12.4999 29.1302 12.5598 29.2691 12.6663 29.3719C12.7728 29.4744 12.9174 29.5318 13.0682 29.5318H19.8864C20.037 29.5318 20.1815 29.4744 20.288 29.3719C20.3945 29.2691 20.4545 29.1303 20.4545 28.985V24.0632C20.4545 23.9183 20.3945 23.7791 20.288 23.6766C20.1815 23.5742 20.037 23.5164 19.8864 23.5164L19.8864 23.5164ZM19.3183 25.9772H17.0454V24.6103H19.318L19.3183 25.9772ZM15.909 24.6103V25.9775L13.6363 25.9772V24.6103L15.909 24.6103ZM13.6363 27.071H15.909V28.4383H13.6363V27.071ZM17.0454 28.4383V27.071H19.318V28.4383H17.0454ZM9.65917 27.8915V28.4383C9.65917 28.7402 9.40482 28.985 9.09079 28.985C8.77706 28.985 8.52272 28.7402 8.52272 28.4383V27.8915C8.52272 27.5892 8.77706 27.3444 9.09079 27.3444C9.40482 27.3444 9.65917 27.5892 9.65917 27.8915ZM7.95465 9.29805H17.045C17.1956 9.29805 17.3402 9.24031 17.4467 9.13783C17.5534 9.03506 17.6131 8.8962 17.6131 8.75099V7.65743C17.6128 7.3673 17.4932 7.0893 17.2799 6.88433C17.067 6.67936 16.7781 6.56389 16.477 6.5636H16.4314C16.2733 5.51276 15.669 4.57226 14.7629 3.96655C14.7659 3.92065 14.7725 3.87619 14.7725 3.82913C14.7725 3.04767 14.3391 2.32563 13.636 1.93476C12.933 1.54416 12.0665 1.54416 11.3634 1.93476C10.66 2.32564 10.2269 3.04767 10.2269 3.82913C10.2269 3.87619 10.2332 3.92065 10.2362 3.96655C9.33008 4.57221 8.72571 5.51276 8.56792 6.5636H8.52233C8.2212 6.56389 7.93236 6.67907 7.7191 6.88433C7.50615 7.08929 7.38617 7.3673 7.38587 7.65743V8.75128V8.75099C7.38587 8.8962 7.44586 9.03506 7.55234 9.13783C7.65912 9.24032 7.80339 9.29806 7.95426 9.29806L7.95465 9.29805ZM11.4465 3.41923C11.5605 3.14815 11.7822 2.93222 12.0623 2.81963C12.3424 2.70704 12.658 2.70704 12.9381 2.81963C13.2182 2.93221 13.4399 3.14815 13.5536 3.41923C12.864 3.23678 12.1361 3.23678 11.4465 3.41923H11.4465ZM12.4996 4.38722V4.38693C13.1535 4.38405 13.7884 4.59912 14.296 4.99606C14.8038 5.39301 15.1526 5.94698 15.2836 6.56364H9.71622C9.84729 5.947 10.1961 5.393 10.7036 4.99636C11.2111 4.59941 11.8457 4.38405 12.4996 4.38694V4.38722ZM8.52277 7.65746H16.4775V8.20423H8.52277V7.65746Z" fill="black"/>
</svg>
