<svg width="34" height="38" viewBox="0 0 34 38" fill="none" xmlns="http://www.w3.org/2000/svg">
<path d="M32.9203 31.1559C33.3541 31.009 33.7025 30.6887 33.878 30.2764C34.0535 29.8638 34.0389 29.3981 33.8381 28.9967C33.6376 28.5952 33.2696 28.2962 32.8274 28.1748V26.9687H33.4135C33.5692 26.9687 33.7183 26.9086 33.8282 26.8019C33.938 26.6953 33.9999 26.5504 33.9999 26.3996C33.9974 24.4378 33.1938 22.5568 31.7654 21.1699C30.3367 19.7826 28.3998 19.0022 26.3794 18.9999H22.8623C20.8419 19.0023 18.9047 19.7826 17.4763 21.1699C16.0476 22.5568 15.2439 24.4378 15.2415 26.3996C15.2415 26.5504 15.3034 26.6953 15.4132 26.8019C15.5231 26.9086 15.6722 26.9687 15.8279 26.9687H16.414V28.1748C15.9718 28.2962 15.6041 28.5952 15.4033 28.9967C15.2028 29.3978 15.1879 29.8636 15.3631 30.2761C15.5379 30.6886 15.886 31.0089 16.3196 31.1564L16.4139 31.1889V32.6606H15.8279C15.5042 32.6606 15.2414 32.9154 15.2414 33.2297V34.9373C15.2421 35.541 15.4893 36.12 15.929 36.5466C16.3685 36.9736 16.9648 37.2137 17.5865 37.2143H31.655C32.2767 37.2137 32.873 36.9736 33.3124 36.5466C33.7521 36.12 33.9994 35.541 34 34.9373V33.2297C34 33.0789 33.9381 32.9341 33.8283 32.8274C33.7184 32.7207 33.5693 32.6606 33.4136 32.6606H32.8275V31.1877L32.9203 31.1559ZM27.5488 33.2526L26.4082 31.3957L27.352 31.0032L28.6007 31.5222L27.5488 33.2526ZM22.8622 20.1383H26.3794C27.9873 20.1401 29.537 20.7249 30.7247 21.7774C31.9123 22.8303 32.6529 24.2756 32.8011 25.8303H16.44C16.5882 24.2756 17.3287 22.8303 18.5164 21.7774C19.7041 20.7249 21.2538 20.1402 22.862 20.1383H22.8622ZM31.6547 26.9687V28.1072H17.5862V26.9687H31.6547ZM16.8574 29.2454H32.3835C32.5998 29.2451 32.7846 29.3962 32.8214 29.603C32.8579 29.81 32.7357 30.0122 32.5321 30.0822H32.5308L30.1103 30.9115L27.5831 29.8611C27.4354 29.7998 27.2683 29.7998 27.1204 29.8611L24.6154 30.9034L22.1145 29.8611C21.966 29.8001 21.7985 29.8001 21.65 29.8611L20.3887 30.3863L19.1261 30.9112L16.7099 30.0828H16.7096C16.5057 30.0131 16.3831 29.8106 16.4196 29.6035C16.4562 29.3965 16.6409 29.2451 16.8575 29.2454L16.8574 29.2454ZM17.5861 31.5906L18.1441 31.7817L18.9502 32.0584H18.9515L18.9527 32.0587C19.0916 32.1059 19.2436 32.1008 19.3791 32.0449L20.9431 31.3935L21.8822 31.0029C24.1068 31.9292 23.5752 31.7078 24.3835 32.0446C24.5311 32.1056 24.6982 32.1056 24.8461 32.0446L25.3208 31.8472L25.8199 32.6606H17.5859L17.5861 31.5906ZM32.8271 34.9373C32.8268 35.2393 32.703 35.5286 32.4833 35.7419C32.2636 35.9553 31.9656 36.0755 31.6546 36.0758H17.5861C17.2751 36.0755 16.9771 35.9553 16.7574 35.7419C16.5377 35.5286 16.4139 35.2393 16.4136 34.9373V33.7991H26.5196L27.0484 34.6602V34.6599C27.1542 34.8321 27.3452 34.9375 27.5516 34.9372H27.5528C27.7598 34.9369 27.9514 34.8306 28.0566 34.6572L28.578 33.7991H32.8274L32.8271 34.9373ZM31.6546 32.6606H29.2697L29.6868 31.974L29.8583 32.0452L29.8663 32.0467C29.9978 32.1005 30.1448 32.105 30.2797 32.0599L30.285 32.0593L31.5535 31.6245L31.6546 31.5894L31.6546 32.6606ZM13.881 36.0757H4.06257L3.89516 33.799H13.4823C13.8062 33.799 14.0687 33.5442 14.0687 33.2296C14.0687 32.9153 13.8062 32.6605 13.4823 32.6605H3.81118C3.56084 29.2561 3.83903 33.0406 2.63993 16.7232H18.4624L18.3615 18.0879C18.346 18.3965 18.5874 18.6606 18.9046 18.6832C19.2221 18.7054 19.5 18.4777 19.5306 18.17L19.6773 16.1949L19.677 16.1922L19.8895 13.308H20.5168C20.6725 13.308 20.8216 13.2482 20.9315 13.1412C21.0413 13.0346 21.1032 12.8897 21.1032 12.7389V9.89282C21.1032 9.74198 21.0413 9.59715 20.9315 9.49048C20.8216 9.38351 20.6725 9.32371 20.5168 9.32371H17.9177L16.3299 6.75408C16.2241 6.58251 16.0332 6.47764 15.8274 6.47764H11.5L13.7658 2.07814L16.196 3.02196C16.4968 3.13854 16.8378 2.99672 16.9578 2.70466C17.0782 2.4126 16.9318 2.08148 16.6311 1.96489L13.7 0.826384C13.4171 0.71671 13.0947 0.835698 12.9582 1.10042L10.1893 6.47767H5.27585C5.07006 6.47767 4.87914 6.58253 4.7733 6.75411L3.18519 9.32374H0.586094C0.262413 9.32374 0 9.57854 0 9.89283V12.7389C0 12.8897 0.0618899 13.0346 0.171747 13.1412C0.2816 13.2482 0.430754 13.308 0.586102 13.308H1.21305L2.05349 24.7324C2.6563 32.9337 2.83237 35.3198 2.93266 36.6851V36.6848C2.95463 36.9826 3.20962 37.2134 3.51721 37.2137H13.8814C14.2051 37.2137 14.4675 36.9589 14.4675 36.6443C14.4675 36.33 14.2051 36.0752 13.8814 36.0752L13.881 36.0757ZM5.60734 7.61641H15.4947L16.5499 9.32398H4.55214L5.60734 7.61641ZM1.17202 10.4625H19.9303V12.1701L1.17202 12.1698V10.4625ZM18.7143 13.3086L18.546 15.5853L2.55479 15.585L2.38738 13.3083L18.7143 13.3086ZM7.03344 24.6921C7.03344 25.5977 7.40386 26.4664 8.06361 27.1071C8.72305 27.7474 9.61765 28.1074 10.5507 28.1074C11.4833 28.1074 12.378 27.7474 13.0378 27.1071C13.6972 26.4665 14.0679 25.5978 14.0679 24.6921C14.0679 23.7862 13.6972 22.9176 13.0378 22.2772C12.378 21.6366 11.4834 21.2769 10.5507 21.2769C9.61805 21.2778 8.72398 21.6381 8.06488 22.2781C7.40544 22.9184 7.0344 23.7865 7.03344 24.6921ZM12.8953 24.6921C12.8953 25.2958 12.6484 25.8751 12.2087 26.3021C11.7689 26.7291 11.1723 26.9689 10.5506 26.9689C9.92862 26.9689 9.3323 26.7291 8.89256 26.3021C8.45283 25.8751 8.20589 25.2958 8.20589 24.6921C8.20589 24.0882 8.45283 23.5092 8.89256 23.0822C9.33229 22.6552 9.92859 22.4151 10.5506 22.4151C11.1723 22.4157 11.7683 22.6558 12.208 23.0828C12.6475 23.5095 12.8947 24.0884 12.8953 24.6921L12.8953 24.6921Z" fill="black"/>
</svg>
