<svg width="36" height="36" viewBox="0 0 36 36" fill="none" xmlns="http://www.w3.org/2000/svg">
<path d="M30.2978 26.0474V25.9467C30.2935 23.4503 29.4617 21.0256 27.9324 19.0526L27.1135 17.9998H27.6242C27.7661 17.9998 27.9019 17.9436 28.0024 17.8434C28.1026 17.7429 28.1591 17.6068 28.1591 17.4651C28.7321 17.4651 29.2616 17.1594 29.5481 16.6632C29.8346 16.1667 29.8346 15.5553 29.5481 15.0591C29.2616 14.5626 28.7321 14.2568 28.1591 14.2568H27.6106C27.1096 13.5862 26.3226 13.1898 25.4854 13.1873H20.4057C19.9282 13.1873 19.4867 13.4422 19.2479 13.8557C19.0094 14.2695 19.0094 14.779 19.2479 15.1925C19.4867 15.6061 19.9282 15.8609 20.4057 15.8609H22.8118V27.0895H19.3362L17.9994 25.3073V18.5343C17.9994 18.3923 17.9432 18.2563 17.843 18.1561C17.7425 18.0559 17.6065 17.9994 17.4648 17.9994H11.0483C10.753 17.9994 10.5137 18.2388 10.5137 18.5343V20.1655C9.7837 20.2132 9.0642 20.3617 8.37491 20.6061V17.4647H9.97902C10.2743 17.4647 10.5136 17.2254 10.5136 16.9301C10.5136 16.6349 10.2743 16.3952 9.97902 16.3952H9.44412V7.30559C9.44412 7.16361 9.38795 7.02784 9.28746 6.92735C9.18726 6.82715 9.05121 6.77097 8.90951 6.77097H2.493C2.19775 6.77097 1.95839 7.01034 1.95839 7.30559V16.3952H1.4235C1.12825 16.3952 0.888885 16.6349 0.888885 16.9301C0.888885 17.2254 1.12825 17.4647 1.4235 17.4647H2.65106L4.72038 23.2481C3.62375 24.6501 3.02789 26.379 3.02761 28.159V31.3672V31.3669C3.02761 31.5089 3.08406 31.645 3.18427 31.7452C3.28447 31.8454 3.42052 31.9018 3.56251 31.9018H7.3483H7.34802C7.51963 33.0992 8.25972 34.1394 9.33489 34.694C10.4098 35.2484 11.6867 35.2484 12.7616 34.694C13.8368 34.1394 14.5769 33.0993 14.7485 31.9018H26.063C26.2344 33.0992 26.9747 34.1394 28.0496 34.694C29.1248 35.2484 30.4015 35.2484 31.4766 34.694C32.5515 34.1394 33.2919 33.0993 33.4632 31.9018H34.5754C34.7173 31.9018 34.8534 31.8454 34.9536 31.7452C35.0538 31.645 35.1103 31.5089 35.1103 31.3669C35.1086 30.042 34.6154 28.7647 33.7266 27.7822C32.8377 26.7996 31.6161 26.1814 30.2979 26.047L30.2978 26.0474ZM28.159 15.3261C28.4542 15.3261 28.6936 15.5655 28.6936 15.8608C28.6936 16.156 28.4542 16.3954 28.159 16.3954V15.8608C28.1587 15.6812 28.1406 15.502 28.1048 15.3261H28.159ZM26.9156 15.1489H26.9153C26.9421 15.2014 26.9659 15.2556 26.9862 15.3112C27.0071 15.3668 27.0249 15.4238 27.0392 15.4814C27.0486 15.5195 27.0559 15.5579 27.0627 15.5963V15.5966C27.079 15.6838 27.0878 15.7721 27.0895 15.8608V16.9303H23.8813V14.2567H25.4854C25.7832 14.2578 26.0748 14.3416 26.3274 14.4994C26.58 14.6569 26.7835 14.8819 26.9153 15.1489L26.9156 15.1489ZM20.4057 14.7913C20.258 14.7913 20.1384 14.6716 20.1384 14.5239C20.1384 14.3763 20.258 14.2566 20.4057 14.2566H22.8117V14.7913H20.4057ZM11.5827 19.069H16.93V20.1385H11.5827V19.069ZM5.16647 14.2566H6.23599V14.7912H5.16647V14.2566ZM3.02742 13.1871V11.0483H4.09694V12.1178C4.09694 12.2595 4.1534 12.3956 4.2536 12.4958C4.35381 12.5963 4.48986 12.6525 4.63156 12.6525H6.77061C6.91231 12.6525 7.04837 12.5963 7.14857 12.4958C7.24877 12.3956 7.30523 12.2595 7.30523 12.1178V11.0483H8.37476V13.1871H3.02742ZM5.16618 11.0483H6.23571V11.5829H5.16647L5.16618 11.0483ZM6.23571 7.84009V8.3747L5.16647 8.37498V7.84009H6.23571ZM3.02749 7.84009H4.09702V8.90962C4.09702 9.05131 4.15347 9.18737 4.25368 9.28757C4.35388 9.38806 4.48993 9.44423 4.63163 9.44423H6.77069C6.91238 9.44423 7.04844 9.38806 7.14864 9.28757C7.24885 9.18737 7.3053 9.05132 7.3053 8.90962V7.84009H8.37483V9.97885L3.02756 9.97914L3.02749 7.84009ZM3.02749 14.2566H4.09702V15.3261C4.09702 15.4678 4.15347 15.6039 4.25368 15.7041C4.35388 15.8043 4.48993 15.8607 4.63163 15.8607H6.77069C6.91238 15.8607 7.04844 15.8043 7.14864 15.7041C7.24885 15.6039 7.3053 15.4678 7.3053 15.3261V14.2566H8.37483V16.3954H3.02756L3.02749 14.2566ZM7.30523 17.4648V21.0705C6.65969 21.4143 6.0638 21.8445 5.53427 22.3491L3.78673 17.4647L7.30523 17.4648ZM4.09702 28.1594C4.09899 26.3164 4.83205 24.5495 6.13526 23.2462C7.43848 21.9433 9.20517 21.2102 11.0481 21.208H16.93V25.4857C16.9297 25.6015 16.9672 25.7141 17.0369 25.8064L18.641 27.9452V27.9454C18.7418 28.0801 18.9004 28.1594 19.0687 28.1594H23.3464C23.4881 28.1594 23.6242 28.1029 23.7244 28.0027C23.8246 27.9022 23.881 27.7665 23.881 27.6245V17.9994H25.7581L27.0882 19.7091C28.4718 21.4941 29.2246 23.6879 29.228 25.9463V26.0468L29.2227 26.0474C27.9993 26.1772 26.8576 26.7225 25.9878 27.5925C25.1179 28.4625 24.5726 29.6042 24.4427 30.8276L24.4424 30.8324H16.3688C16.1909 29.0575 15.1401 27.4884 13.5664 26.6484C11.9928 25.8084 10.1042 25.8084 8.53076 26.6484C6.95714 27.4884 5.90626 29.0575 5.72843 30.8324H4.09722L4.09702 28.1594ZM11.0481 34.041C10.4322 34.0402 9.83521 33.827 9.35786 33.4375C8.88082 33.048 8.55252 32.5057 8.42837 31.9023H8.98528C9.14194 32.5182 9.56534 33.0319 10.1403 33.3029C10.7153 33.5742 11.3811 33.5742 11.9558 33.3029C12.5308 33.0319 12.9545 32.5182 13.1108 31.9023H13.6678C13.5438 32.5058 13.2156 33.048 12.7383 33.4375C12.261 33.827 11.6643 34.0402 11.048 34.041H11.0481ZM10.1223 31.9022H11.974C11.8484 32.1199 11.6499 32.2864 11.414 32.3725C11.1777 32.4583 10.9186 32.4583 10.6826 32.3725C10.4464 32.2864 10.2479 32.1199 10.1223 31.9022H10.1223ZM6.80396 30.8327C6.97869 29.4423 7.82377 28.2254 9.06549 27.5759C10.3075 26.9264 11.7888 26.9264 13.0308 27.5759C14.2728 28.2254 15.1176 29.4423 15.2923 30.8327H6.80396ZM29.7625 34.0409C29.1466 34.0401 28.5496 33.827 28.0726 33.4374C27.5953 33.0479 27.267 32.5056 27.1428 31.9022H27.6997C27.8564 32.5181 28.28 33.0318 28.8547 33.3028C29.4297 33.5741 30.0956 33.5741 30.6705 33.3028C31.2452 33.0318 31.6689 32.5181 31.8256 31.9022H32.3825C32.2583 32.5057 31.93 33.0479 31.4527 33.4374C30.9757 33.827 30.3787 34.0401 29.7625 34.0409H29.7625ZM28.8367 31.9022H30.6884C30.5628 32.1198 30.3646 32.2863 30.1284 32.3724C29.8921 32.4582 29.6333 32.4582 29.397 32.3724C29.1608 32.2863 28.9626 32.1198 28.837 31.9022H28.8367ZM25.5224 30.8326C25.6971 29.4425 26.5416 28.2262 27.783 27.5767C29.0245 26.9274 30.5052 26.9274 31.7466 27.5767C32.9881 28.2262 33.8326 29.4424 34.0073 30.8326H25.5224ZM12.1173 11.5832H14.2561V13.7222C14.2564 13.9297 14.3764 14.1183 14.5641 14.2063C14.752 14.2944 14.9739 14.2659 15.1334 14.1332L18.1929 11.5832H26.0194C26.1614 11.5832 26.2972 11.527 26.3976 11.4268C26.4979 11.3264 26.5543 11.1906 26.5543 11.0486V1.4235C26.5543 1.28181 26.4979 1.14575 26.3976 1.04555C26.2972 0.945343 26.1614 0.888885 26.0194 0.888885H12.1172C11.822 0.888885 11.5823 1.12825 11.5823 1.4235V11.0486C11.5823 11.1906 11.6388 11.3263 11.739 11.4268C11.8395 11.527 11.9753 11.5832 12.1172 11.5832L12.1173 11.5832ZM12.6519 1.95881H25.4847V10.5137H17.9985C17.8734 10.5137 17.7524 10.5575 17.6561 10.6374L15.3251 12.5805V11.0484C15.3251 10.9067 15.2687 10.7706 15.1685 10.6704C15.0683 10.5699 14.9322 10.5138 14.7902 10.5138H12.6515L12.6519 1.95881ZM15.3256 9.44499L22.811 9.44471C22.953 9.44471 23.0891 9.38854 23.1893 9.28805C23.2895 9.18785 23.3459 9.05179 23.3459 8.91009V7.84056C23.3454 7.55717 23.2327 7.28534 23.032 7.08494C22.8316 6.88453 22.5598 6.77162 22.2764 6.77134H22.2282C22.1164 6.11564 21.8036 5.51105 21.3334 5.04078C20.8631 4.57024 20.2585 4.25776 19.6028 4.14569V3.56309C19.6028 3.26755 19.3634 3.02819 19.0682 3.02819C18.7729 3.02819 18.5336 3.26755 18.5336 3.56309V4.14569C17.8779 4.25775 17.2733 4.57022 16.803 5.04078C16.3328 5.51103 16.02 6.11565 15.9082 6.77134H15.8599C15.5765 6.77162 15.3047 6.88453 15.1043 7.08494C14.9036 7.28534 14.791 7.55717 14.7904 7.84056V8.91009C14.7904 9.05179 14.8469 9.18785 14.9471 9.28805C15.0476 9.38854 15.1833 9.44471 15.3253 9.44471L15.3256 9.44499ZM19.0685 5.16725C19.5424 5.16753 20.0031 5.32532 20.3776 5.61577C20.7524 5.90594 21.0203 6.3124 21.1394 6.77136H16.9975C17.1166 6.31239 17.3845 5.90589 17.7593 5.61577C18.1339 5.32532 18.5946 5.16753 19.0685 5.16725ZM15.8602 7.84088L22.2767 7.8406V8.37521L15.8602 8.37549V7.84088ZM30.2971 15.8611C30.2971 15.5658 30.5365 15.3265 30.8317 15.3265H33.5054C33.8006 15.3265 34.04 15.5658 34.04 15.8611C34.04 16.1563 33.8006 16.3957 33.5054 16.3957H30.8317C30.5365 16.3957 30.2971 16.1563 30.2971 15.8611ZM30.3248 14.4261C30.2799 14.2917 30.2901 14.1449 30.3536 14.0182C30.4168 13.8912 30.528 13.7949 30.6627 13.75L32.2668 13.2154C32.5437 13.1316 32.837 13.2834 32.9287 13.5578C33.0201 13.8325 32.8768 14.13 32.6049 14.2293L31.0008 14.7639C30.8665 14.8091 30.7197 14.7989 30.5927 14.7354C30.4659 14.6722 30.3694 14.5607 30.3248 14.4261L30.3248 14.4261ZM32.6053 17.4929H32.605C32.7433 17.5346 32.8587 17.6306 32.9254 17.759C32.9917 17.8872 33.0033 18.0371 32.9575 18.174C32.9118 18.3109 32.8127 18.4238 32.6826 18.4864C32.5525 18.5491 32.4023 18.5564 32.2668 18.507L30.6627 17.9724V17.9721C30.3909 17.8728 30.2475 17.5753 30.339 17.3006C30.4307 17.0263 30.724 16.8744 31.0009 16.9582L32.6053 17.4929Z" fill="black"/>
</svg>
